<svg xmlns="http://www.w3.org/2000/svg" viewBox="0 0 512 512">
  <rect width="512" height="512" rx="104" fill="#171c23"/>
  <rect x="112" y="122" width="288" height="222" rx="52" fill="none" stroke="#26cce9" stroke-width="22"/>
  <g fill="#26cce9">
    <rect x="174" y="92" width="18" height="44" rx="8"/>
    <rect x="222" y="92" width="18" height="44" rx="8"/>
    <rect x="270" y="92" width="18" height="44" rx="8"/>
    <rect x="318" y="92" width="18" height="44" rx="8"/>
    <rect x="174" y="332" width="18" height="44" rx="8"/>
    <rect x="222" y="332" width="18" height="44" rx="8"/>
    <rect x="270" y="332" width="18" height="44" rx="8"/>
    <rect x="318" y="332" width="18" height="44" rx="8"/>
  </g>
  <path d="M160 244c30 0 30 58 60 58s30-116 60-116 30 116 60 116 30-58 60-58" fill="none" stroke="#37dc96" stroke-width="24" stroke-linecap="round" stroke-linejoin="round"/>
  <circle cx="154" cy="166" r="13" fill="#37dc96"/>
  <circle cx="360" cy="310" r="13" fill="#37dc96"/>
</svg>
